<svg width="24" height="24" viewBox="0 0 24 24" fill="none" xmlns="http://www.w3.org/2000/svg">
<g clip-path="url(#clip0_6_13)">
<path fill-rule="evenodd" clip-rule="evenodd" d="M3.04469 0.130676C2.27186 0.130676 1.53069 0.437681 0.984216 0.984154C0.437743 1.53063 0.130737 2.2718 0.130737 3.04463V5.48699C0.130737 6.19708 0.706371 6.77271 1.41645 6.77271C2.12654 6.77271 2.70216 6.19708 2.70216 5.48699V3.04463C2.70216 2.95379 2.73825 2.86667 2.8025 2.80244C2.86673 2.73819 2.95385 2.7021 3.04469 2.7021H5.48705C6.19714 2.7021 6.77277 2.12648 6.77277 1.41639C6.77277 0.70631 6.19714 0.130676 5.48705 0.130676H3.04469ZM6.85005 4.70672C5.66657 4.70672 4.70719 5.66612 4.70719 6.84957V10.4032C4.70719 11.5867 5.66657 12.5461 6.85005 12.5461H10.4037C11.5871 12.5461 12.5465 11.5867 12.5465 10.4032V6.84957C12.5465 5.6661 11.5871 4.70672 10.4037 4.70672H6.85005ZM7.27862 9.97465V7.27815H9.97512V9.97465H7.27862ZM17.2274 1.41652C17.2274 0.706442 17.803 0.130807 18.5131 0.130807H20.9554C21.7282 0.130807 22.4695 0.437813 23.016 0.984284C23.5623 1.53076 23.8694 2.27193 23.8694 3.04477V5.48713C23.8694 6.1972 23.2937 6.77284 22.5837 6.77284C21.8736 6.77284 21.2979 6.1972 21.2979 5.48713V3.04477C21.2979 2.95391 21.2619 2.86679 21.1977 2.80256C21.1334 2.73832 21.0463 2.70224 20.9554 2.70224H18.5131C17.803 2.70224 17.2274 2.1266 17.2274 1.41652ZM2.70226 18.5131C2.70226 17.803 2.12664 17.2274 1.41656 17.2274C0.706476 17.2274 0.130842 17.803 0.130842 18.5131V20.9554C0.130842 21.7282 0.437847 22.4695 0.984321 23.016C1.53079 23.5623 2.27196 23.8694 3.04479 23.8694H5.48715C6.19725 23.8694 6.77287 23.2937 6.77287 22.5836C6.77287 21.8736 6.19725 21.2979 5.48715 21.2979H3.04479C2.95395 21.2979 2.86683 21.2619 2.8026 21.1976C2.73837 21.1334 2.70226 21.0463 2.70226 20.9554V18.5131ZM22.5837 17.2274C23.2937 17.2274 23.8694 17.803 23.8694 18.5131V20.9554C23.8694 21.7282 23.5623 22.4695 23.016 23.016C22.4695 23.5623 21.7282 23.8694 20.9554 23.8694H18.5131C17.803 23.8694 17.2274 23.2937 17.2274 22.5836C17.2274 21.8736 17.803 21.2979 18.5131 21.2979H20.9554C21.0463 21.2979 21.1334 21.2619 21.1977 21.1976C21.2619 21.1334 21.2979 21.0463 21.2979 20.9554V18.5131C21.2979 17.803 21.8736 17.2274 22.5837 17.2274ZM7.2787 15.7545C7.2787 15.0444 6.70306 14.4688 5.99299 14.4688C5.28291 14.4688 4.70727 15.0444 4.70727 15.7545V18.0072C4.70727 18.7172 5.28291 19.2929 5.99299 19.2929H8.24571C8.95579 19.2929 9.53143 18.7172 9.53143 18.0072C9.53143 17.2971 8.95579 16.7215 8.24571 16.7215H7.2787V15.7545ZM9.78164 15.7545C9.78164 15.0444 10.3573 14.4688 11.0674 14.4688H12C12.7101 14.4688 13.2857 15.0444 13.2857 15.7545V18.0072C13.2857 18.7172 12.7101 19.2929 12 19.2929C11.2899 19.2929 10.7143 18.7172 10.7143 18.0072V16.9911C10.1759 16.8377 9.78164 16.3421 9.78164 15.7545ZM17.0403 5.99257C17.0403 5.28248 16.4646 4.70685 15.7546 4.70685C15.0445 4.70685 14.4688 5.28248 14.4688 5.99257V8.24529C14.4688 8.95537 15.0445 9.53101 15.7546 9.53101H18.0072C18.7174 9.53101 19.2929 8.95537 19.2929 8.24529C19.2929 7.5352 18.7174 6.95958 18.0072 6.95958H17.0403V5.99257ZM14.4688 12C14.4688 11.2899 15.0445 10.7142 15.7546 10.7142H18.0072C18.7174 10.7142 19.2929 11.2899 19.2929 12V13.0954C19.2929 13.8055 18.7174 14.3811 18.0072 14.3811C17.3618 14.3811 16.8275 13.9055 16.7355 13.2857H15.7546C15.0445 13.2857 14.4688 12.71 14.4688 12ZM17.0403 15.7545C17.0403 15.0444 16.4646 14.4688 15.7546 14.4688C15.0445 14.4688 14.4688 15.0444 14.4688 15.7545V18.0072C14.4688 18.7172 15.0445 19.2929 15.7546 19.2929H18.0072C18.7174 19.2929 19.2929 18.7172 19.2929 18.0072C19.2929 17.2971 18.7174 16.7215 18.0072 16.7215H17.0403V15.7545Z" fill="#0094C6"/>
</g>
<defs>
<clipPath id="clip0_6_13">
<rect width="24" height="24" fill="white"/>
</clipPath>
</defs>
</svg>
