<svg width="262" height="53" viewBox="0 0 262 53" fill="none" xmlns="http://www.w3.org/2000/svg">
<path d="M17.767 9.09091H26.4943V17.8182H17.767V9.09091ZM9.03977 9.09091H17.767V17.8182H9.03977V9.09091ZM0.3125 17.8182H9.03977V26.5455H0.3125V17.8182ZM17.767 26.5455H26.4943V35.2727H17.767V26.5455ZM17.767 35.2727H26.4943V44H17.767V35.2727ZM0.3125 35.2727H9.03977V44H0.3125V35.2727ZM0.3125 9.09091H9.03977V17.8182H0.3125V9.09091ZM9.03977 35.2727H17.767V44H9.03977V35.2727ZM35.1875 9.09091H43.9148V17.8182H35.1875V9.09091ZM35.1875 17.8182H43.9148V26.5455H35.1875V17.8182ZM35.1875 26.5455H43.9148V35.2727H35.1875V26.5455ZM43.9148 35.2727H52.642V44H43.9148V35.2727ZM52.642 26.5455H61.3693V35.2727H52.642V26.5455ZM52.642 17.8182H61.3693V26.5455H52.642V17.8182ZM52.642 9.09091H61.3693V17.8182H52.642V9.09091ZM61.3693 35.2727H70.0966V44H61.3693V35.2727ZM70.0966 26.5455H78.8239V35.2727H70.0966V26.5455ZM70.0966 17.8182H78.8239V26.5455H70.0966V17.8182ZM70.0966 9.09091H78.8239V17.8182H70.0966V9.09091ZM87.5938 35.2727H96.321V44H87.5938V35.2727ZM87.5938 26.5455H96.321V35.2727H87.5938V26.5455ZM87.5938 17.8182H96.321V26.5455H87.5938V17.8182ZM87.5938 0.363635H96.321V9.09091H87.5938V0.363635ZM105.031 9.09091H113.759V17.8182H105.031V9.09091ZM105.031 17.8182H113.759V26.5455H105.031V17.8182ZM105.031 26.5455H113.759V35.2727H105.031V26.5455ZM105.031 35.2727H113.759V44H105.031V35.2727ZM105.031 44H113.759V52.7273H105.031V44ZM113.759 9.09091H122.486V17.8182H113.759V9.09091ZM122.486 17.8182H131.213V26.5455H122.486V17.8182ZM122.486 26.5455H131.213V35.2727H122.486V26.5455ZM113.759 35.2727H122.486V44H113.759V35.2727ZM148.634 9.09091H157.361V17.8182H148.634V9.09091ZM157.361 17.8182H166.088V26.5455H157.361V17.8182ZM139.906 17.8182H148.634V26.5455H139.906V17.8182ZM157.361 26.5455H166.088V35.2727H157.361V26.5455ZM148.634 26.5455H157.361V35.2727H148.634V26.5455ZM139.906 26.5455H148.634V35.2727H139.906V26.5455ZM139.906 35.2727H148.634V44H139.906V35.2727ZM148.634 44H157.361V52.7273H148.634V44ZM174.781 9.09091H183.509V17.8182H174.781V9.09091ZM174.781 17.8182H183.509V26.5455H174.781V17.8182ZM174.781 26.5455H183.509V35.2727H174.781V26.5455ZM174.781 35.2727H183.509V44H174.781V35.2727ZM183.509 0.363635H192.236V9.09091H183.509V0.363635ZM183.509 17.8182H192.236V26.5455H183.509V17.8182ZM200.938 0.363635H209.665V9.09091H200.938V0.363635ZM200.938 9.09091H209.665V17.8182H200.938V9.09091ZM200.938 17.8182H209.665V26.5455H200.938V17.8182ZM200.938 26.5455H209.665V35.2727H200.938V26.5455ZM200.938 35.2727H209.665V44H200.938V35.2727ZM218.375 35.2727H227.102V44H218.375V35.2727ZM218.375 26.5455H227.102V35.2727H218.375V26.5455ZM218.375 17.8182H227.102V26.5455H218.375V17.8182ZM218.375 0.363635H227.102V9.09091H218.375V0.363635ZM235.812 9.09091H244.54V17.8182H235.812V9.09091ZM253.267 9.09091H261.994V17.8182H253.267V9.09091ZM235.812 35.2727H244.54V44H235.812V35.2727ZM253.267 35.2727H261.994V44H253.267V35.2727ZM244.54 26.5455H253.267V35.2727H244.54V26.5455ZM244.54 17.8182H253.267V26.5455H244.54V17.8182Z" fill="white"/>
</svg>
